<svg xmlns="http://www.w3.org/2000/svg"  viewBox="0 0 100 100" width="100px" height="100px" fill="#FFFDFA"><path d="M 49.847656 6.2128906 C 48.408149 6.2297579 47.08608 6.4086355 45.951172 6.6855469 C 44.437961 7.054762 43.27237 7.5405001 42.5 8.2753906 C 40.104218 10.554917 37.037541 11.21595 33.462891 12.724609 C 29.88824 14.233268 25.933018 16.663844 22.273438 22.466797 C 20.710843 24.944743 19.099019 27.256894 18.142578 30.050781 C 17.186138 32.844668 16.941396 36.098597 18.033203 40.253906 C 18.930586 43.670273 18.134301 49.109828 18.884766 53.683594 C 16.005344 55.042328 14 57.958672 14 61.337891 C 14 66.007335 17.819452 69.810547 22.5 69.810547 C 23.058545 69.810547 23.565674 69.654404 24.091797 69.550781 C 24.759269 73.675529 25.760904 77.672828 27.390625 81.080078 C 30.939187 88.4978 40.301388 92.640552 49.476562 92.978516 C 54.06415 93.147497 58.638828 92.355326 62.482422 90.431641 C 66.326016 88.507955 69.440502 85.41314 70.939453 81.095703 C 72.283472 77.224719 73.211071 73.406781 73.845703 69.667969 C 77.400116 68.648672 80 65.370383 80 61.5 C 80 58.05554 77.938145 55.087244 74.980469 53.755859 C 74.920443 49.878467 74.654532 46.179493 74.326172 42.673828 C 75.458351 41.080762 76.573427 38.789599 77.097656 36.072266 C 77.639131 33.265544 77.469637 30.021768 75.984375 26.863281 C 75.96676 22.831255 75.272754 19.801071 73.267578 17.472656 C 71.274511 15.158302 68.128625 13.630833 63.527344 12.136719 C 59.866776 8.0935672 55.272232 6.5106866 51.324219 6.2519531 C 50.821115 6.2189822 50.327492 6.2072682 49.847656 6.2128906 z M 49.871094 8.2128906 C 50.300809 8.2077709 50.742776 8.2185178 51.193359 8.2480469 C 54.798026 8.484279 58.941643 9.8794563 62.248047 13.658203 A 1.0001 1.0001 0 0 0 62.695312 13.953125 C 67.309073 15.431895 70.12275 16.88551 71.751953 18.777344 C 73.381156 20.669178 74 23.11 74 27 A 1.0001 1.0001 0 0 0 74.105469 27.447266 C 75.507657 30.251642 75.6288 33.132543 75.134766 35.693359 C 74.883707 36.994713 74.466154 38.199851 73.986328 39.253906 C 73.904118 38.474738 73.824329 37.670613 73.742188 36.916016 C 73.742117 36.915367 73.742258 36.914711 73.742188 36.914062 C 73.695967 36.489234 73.638458 36.071179 73.572266 35.658203 C 73.572163 35.657565 73.572368 35.656888 73.572266 35.65625 C 73.506044 35.243299 73.431252 34.834607 73.345703 34.433594 C 73.34557 34.432969 73.345837 34.432266 73.345703 34.431641 C 73.260126 34.030652 73.162852 33.637013 73.058594 33.248047 C 73.058431 33.247439 73.058757 33.246702 73.058594 33.246094 C 72.954307 32.857149 72.841074 32.474493 72.71875 32.097656 C 72.718559 32.097069 72.718941 32.096291 72.71875 32.095703 C 72.596207 31.718296 72.464208 31.347597 72.324219 30.982422 C 72.184007 30.616671 72.035967 30.257695 71.878906 29.904297 C 71.722118 29.551439 71.557707 29.205689 71.384766 28.865234 C 71.211564 28.524256 71.030549 28.189783 70.841797 27.861328 C 70.653628 27.533846 70.456891 27.213382 70.253906 26.898438 C 70.253614 26.897983 70.254199 26.896938 70.253906 26.896484 C 70.050893 26.581547 69.840232 26.273017 69.623047 25.970703 C 69.622743 25.970281 69.62335 25.969172 69.623047 25.96875 C 68.970491 25.060557 68.255154 24.210677 67.486328 23.417969 C 66.204952 22.096788 64.774051 20.937132 63.234375 19.945312 C 58.923342 17.167795 53.75882 15.703302 48.626953 15.667969 C 46.427582 15.652826 44.22758 15.896158 42.095703 16.410156 C 41.384377 16.581572 40.681766 16.783742 39.988281 17.015625 C 39.296392 17.246974 38.614327 17.508458 37.945312 17.800781 C 37.944541 17.801118 37.944131 17.802397 37.943359 17.802734 C 37.274395 18.095121 36.617538 18.417343 35.976562 18.771484 C 35.975793 18.771909 35.975378 18.773013 35.974609 18.773438 C 35.65454 18.950325 35.337524 19.133737 35.025391 19.326172 C 35.024631 19.32664 35.024197 19.327657 35.023438 19.328125 C 34.711331 19.520594 34.403141 19.719622 34.099609 19.927734 C 34.098865 19.928245 34.098401 19.929177 34.097656 19.929688 C 33.79415 20.137836 33.495466 20.354235 33.201172 20.578125 C 33.200446 20.578677 33.199944 20.579526 33.199219 20.580078 C 32.904948 20.804007 32.614499 21.035623 32.330078 21.275391 C 32.329377 21.275982 32.328827 21.276752 32.328125 21.277344 C 32.043729 21.517152 31.763797 21.763792 31.490234 22.019531 C 31.489561 22.020161 31.488955 22.020854 31.488281 22.021484 C 31.214742 22.277266 30.947622 22.542752 30.685547 22.814453 C 30.684905 22.815118 30.684235 22.815741 30.683594 22.816406 C 30.421542 23.088152 30.165973 23.366644 29.916016 23.654297 C 29.871935 23.705013 29.830802 23.759336 29.787109 23.810547 C 29.582385 24.050548 29.37764 24.292116 29.181641 24.542969 C 29.181329 24.543367 29.181952 24.544524 29.181641 24.544922 C 28.944201 24.848858 28.712337 25.160615 28.488281 25.480469 C 28.487979 25.4809 28.488583 25.481991 28.488281 25.482422 C 28.264252 25.802286 28.047905 26.129075 27.837891 26.464844 C 27.837409 26.465614 27.836419 26.466026 27.835938 26.466797 C 27.626133 26.802316 27.423698 27.146663 27.228516 27.498047 C 27.22808 27.498832 27.226999 27.499215 27.226562 27.5 C 27.031399 27.851441 26.843972 28.210829 26.664062 28.578125 C 26.303126 29.314914 25.973462 30.082258 25.677734 30.882812 C 25.382326 31.682502 25.121769 32.51372 24.896484 33.376953 C 24.558557 34.671803 24.300705 36.038973 24.134766 37.476562 C 24.082026 37.933364 24.040088 38.39796 24.005859 38.869141 C 24.005812 38.869796 24.005907 38.870438 24.005859 38.871094 C 24.005683 38.872458 23.955882 39.256382 23.878906 39.957031 C 23.647723 42.060041 23.170919 47.009093 23.058594 52.921875 C 22.8704 52.909435 22.691066 52.865234 22.5 52.865234 C 21.954973 52.865234 21.423254 52.92103 20.90625 53.019531 C 20.344344 49.01182 21.031248 43.798495 19.966797 39.746094 C 18.956604 35.901403 19.194346 33.155332 20.035156 30.699219 C 20.875966 28.243106 22.37639 26.055257 23.966797 23.533203 C 27.420217 18.057156 30.871885 15.987997 34.240234 14.566406 C 37.608584 13.144815 41.019689 12.445083 43.878906 9.7246094 C 44.157536 9.4594999 45.119352 8.945238 46.423828 8.6269531 C 47.402185 8.3882395 48.581947 8.2282499 49.871094 8.2128906 z M 48.611328 17.667969 C 49.292032 17.672656 49.972057 17.704458 50.650391 17.761719 C 50.651039 17.761773 50.651695 17.761664 50.652344 17.761719 C 51.330029 17.818974 52.0051 17.902499 52.675781 18.011719 C 52.676419 18.011823 52.677097 18.011615 52.677734 18.011719 C 53.348414 18.120988 54.014789 18.255292 54.673828 18.416016 C 54.674448 18.416167 54.675162 18.415865 54.675781 18.416016 C 55.994463 18.737711 57.285065 19.162852 58.529297 19.6875 C 58.529858 19.687736 58.530689 19.687264 58.53125 19.6875 C 60.397854 20.474738 62.159322 21.488158 63.753906 22.720703 C 63.754328 22.721029 63.755438 22.720378 63.755859 22.720703 C 64.818778 23.542408 65.807499 24.46208 66.703125 25.476562 C 67.151103 25.983991 67.575451 26.51542 67.974609 27.070312 C 68.17416 27.347732 68.368212 27.63073 68.554688 27.919922 C 68.55498 27.920375 68.554395 27.921422 68.554688 27.921875 C 68.740842 28.21062 68.921208 28.504272 69.09375 28.804688 C 69.094028 28.805172 69.093472 28.806156 69.09375 28.806641 C 69.439156 29.407984 69.757527 30.031979 70.044922 30.679688 C 70.094789 30.792073 70.137508 30.909665 70.185547 31.023438 C 67.491454 28.608038 63.582031 28.005859 63.582031 28.005859 A 0.50005 0.50005 0 0 0 63.482422 27.998047 A 0.50005 0.50005 0 0 0 63.417969 28.994141 C 63.417969 28.994141 69.216713 30.050613 71.052734 33.722656 A 0.50005 0.50005 0 0 0 71.154297 33.871094 C 71.238104 34.191644 71.3185 34.514211 71.388672 34.84375 C 71.388805 34.844375 71.388539 34.845078 71.388672 34.845703 C 71.467207 35.214913 71.536781 35.590268 71.597656 35.970703 C 71.597758 35.971342 71.597554 35.972018 71.597656 35.972656 C 71.658503 36.353118 71.711299 36.739236 71.753906 37.130859 C 71.753977 37.131508 71.753836 37.132164 71.753906 37.132812 C 71.767363 37.25679 71.779481 37.392944 71.792969 37.517578 C 70.236943 34.821945 67.33146 33 64 33 C 59.035357 33 55 37.03536 55 42 C 55 46.96464 59.035357 51 64 51 C 67.945808 51 71.297368 48.446904 72.509766 44.908203 C 72.763723 47.964312 72.960985 51.127488 72.992188 54.421875 A 1.0001 1.0001 0 0 0 72.992188 54.441406 C 72.992242 54.447304 72.992134 54.453086 72.992188 54.458984 C 73.001824 55.537325 72.99327 56.628495 72.966797 57.728516 C 72.961644 57.942091 72.950021 58.158688 72.943359 58.373047 C 72.916474 59.240524 72.875656 60.114485 72.822266 60.994141 C 72.803534 61.302031 72.781995 61.610598 72.759766 61.919922 C 72.701474 62.732597 72.629001 63.551038 72.544922 64.373047 C 72.512264 64.692061 72.484041 65.009716 72.447266 65.330078 C 72.319397 66.444301 72.171831 67.564059 71.990234 68.693359 A 1.0001 1.0001 0 0 0 71.988281 68.716797 C 71.371136 72.552432 70.428896 76.470296 69.050781 80.439453 C 67.734232 84.231517 65.055344 86.90617 61.585938 88.642578 C 58.116531 90.378986 53.857694 91.139112 49.550781 90.980469 C 40.936955 90.663182 32.263798 86.635075 29.193359 80.216797 C 27.559365 76.800613 26.506655 72.628617 25.869141 68.275391 A 1.0001 1.0001 0 0 0 24.564453 67.472656 C 23.909984 67.69023 23.220155 67.810547 22.5 67.810547 C 18.896548 67.810547 16 64.922447 16 61.337891 C 16 58.53234 17.778425 56.161246 20.277344 55.259766 A 1.0001 1.0001 0 0 0 20.328125 55.244141 C 20.663526 55.125789 21.008226 55.033041 21.361328 54.96875 C 21.419307 54.958619 21.478601 54.95196 21.537109 54.943359 C 21.658669 54.924664 21.780756 54.906232 21.904297 54.894531 C 22.100929 54.876865 22.298567 54.865234 22.5 54.865234 C 22.948817 54.865234 23.38603 54.910414 23.806641 54.996094 A 1.0001 1.0001 0 0 0 24.105469 55.011719 A 1.0001 1.0001 0 0 0 24.300781 54.970703 A 1.0001 1.0001 0 0 0 25.005859 54.025391 C 25.062433 47.750135 25.587219 42.515618 25.845703 40.292969 C 25.931771 39.552438 25.988092 39.147847 25.988281 39.146484 A 1.0001 1.0001 0 0 0 25.988281 39.144531 A 1.0001 1.0001 0 0 0 25.994141 39.078125 C 26.092901 37.678871 26.27594 36.355925 26.537109 35.105469 C 26.624095 34.688798 26.720398 34.281344 26.824219 33.880859 C 27.343492 31.878048 28.069133 30.076585 28.964844 28.466797 C 29.143909 28.144854 29.329157 27.832102 29.521484 27.525391 C 29.714096 27.218284 29.911873 26.918948 30.117188 26.626953 C 30.322181 26.335314 30.532936 26.052117 30.75 25.775391 C 30.967364 25.498326 31.191052 25.229075 31.419922 24.966797 C 31.648144 24.705188 31.882023 24.452133 32.121094 24.205078 C 32.599924 23.710376 33.100372 23.243972 33.619141 22.806641 C 34.656678 21.931977 35.77265 21.170164 36.947266 20.521484 C 37.760477 20.07239 38.608914 19.697592 39.472656 19.355469 C 39.85644 19.203514 40.236915 19.043106 40.628906 18.912109 C 41.777838 18.528006 42.963018 18.246669 44.164062 18.041016 C 45.627188 17.790486 47.115994 17.657673 48.611328 17.667969 z M 42.5 28 C 42.5 28 35.246855 27.947949 32.070312 33.242188 A 0.5010976 0.5010976 0 1 0 32.929688 33.757812 C 35.753145 29.05205 42.5 29 42.5 29 A 0.50005 0.50005 0 1 0 42.5 28 z M 40 33 C 35.035357 33 31 37.03536 31 42 C 31 46.96464 35.035357 51 40 51 C 44.964643 51 49 46.96464 49 42 C 49 37.03536 44.964643 33 40 33 z M 40 34 C 44.424204 34 48 37.575799 48 42 C 48 46.424201 44.424204 50 40 50 C 35.575796 50 32 46.424201 32 42 C 32 37.575799 35.575796 34 40 34 z M 64 34 C 68.424204 34 72 37.575799 72 42 C 72 46.424201 68.424204 50 64 50 C 59.575796 50 56 46.424201 56 42 C 56 37.575799 59.575796 34 64 34 z M 40.5 41 A 1.5 1.5 0 0 0 40.5 44 A 1.5 1.5 0 0 0 40.5 41 z M 63.5 41 A 1.5 1.5 0 0 0 63.5 44 A 1.5 1.5 0 0 0 63.5 41 z M 52.978516 50.994141 A 0.50005 0.50005 0 0 0 52.525391 51.658203 L 56.306641 63 L 49.5 63 A 0.50005 0.50005 0 1 0 49.5 64 L 57 64 A 0.50005 0.50005 0 0 0 57.474609 63.341797 L 53.474609 51.341797 A 0.50005 0.50005 0 0 0 52.978516 50.994141 z M 74.988281 56.09375 C 76.779803 57.246904 78 59.202118 78 61.5 C 78 64.116566 76.42157 66.281502 74.205078 67.3125 C 74.734954 63.465003 74.963097 59.715574 74.988281 56.09375 z M 63.203125 66.605469 C 62.119906 66.617326 61.277344 67.052734 61.277344 67.052734 A 0.50005 0.50005 0 1 0 61.722656 67.947266 C 61.722656 67.947266 62.623081 67.515846 63.570312 67.621094 C 64.04393 67.673714 64.513444 67.845476 64.943359 68.275391 C 65.373274 68.705306 65.773594 69.4168 66.009766 70.597656 A 0.50005 0.50005 0 1 0 66.990234 70.402344 C 66.726406 69.0832 66.251726 68.169694 65.650391 67.568359 C 65.049056 66.967024 64.33107 66.701282 63.679688 66.628906 C 63.516841 66.610812 63.35787 66.603775 63.203125 66.605469 z M 63.015625 70.494141 A 0.50005 0.50005 0 0 0 62.570312 70.742188 C 59.673716 75.569847 54.876613 77.005535 50.720703 77.25 C 46.564793 77.494465 43.136719 76.519531 43.136719 76.519531 A 0.50005 0.50005 0 1 0 42.863281 77.480469 C 42.863281 77.480469 46.435207 78.505535 50.779297 78.25 C 55.123387 77.994465 60.326284 76.430153 63.429688 71.257812 A 0.50005 0.50005 0 0 0 63.015625 70.494141 z M 65.119141 79.568359 A 0.50005 0.50005 0 0 0 64.626953 79.964844 C 64.626953 79.964844 64.397436 80.99866 63.435547 82.322266 C 62.473657 83.645871 60.799247 85.218598 57.876953 86.191406 A 0.50005 0.50005 0 1 0 58.191406 87.138672 C 61.313112 86.099481 63.17703 84.378551 64.244141 82.910156 C 65.311251 81.441762 65.601563 80.185547 65.601562 80.185547 A 0.50005 0.50005 0 0 0 65.119141 79.568359 z M 54.828125 86.861328 A 0.50005 0.50005 0 0 0 54.744141 86.867188 C 53.276209 87.073402 51.598679 87.156116 49.681641 87.064453 A 0.50005 0.50005 0 1 0 49.632812 88.0625 C 51.605775 88.15684 53.346744 88.07321 54.882812 87.857422 A 0.50005 0.50005 0 0 0 54.828125 86.861328 z"/></svg>